<svg width="421" height="176" viewBox="0 0 421 176" fill="none" xmlns="http://www.w3.org/2000/svg">
<g clip-path="url(#clip0_61_1007)">
<path d="M317.24 75.6947V42.9209C317.24 39.653 319.903 36.9946 323.176 36.9946H344.652C347.925 36.9946 350.588 39.653 350.588 42.9209V75.6947C350.588 78.9625 347.925 81.6209 344.652 81.6209H323.176C319.903 81.6209 317.24 78.9625 317.24 75.6947Z" fill="#EB455F"/>
<path d="M328.238 51.1617H339.59V48.3283H328.238V51.1617Z" fill="#3F3D56"/>
<path d="M331.076 46.2032H336.752V36.9946H331.076V46.2032Z" fill="#3F3D56"/>
<path d="M331.076 81.6209H336.752V72.4123H331.076V81.6209Z" fill="#3F3D56"/>
<path d="M301.985 77.0193H269.158C265.885 77.0193 263.222 74.3609 263.222 71.0931V49.6529C263.222 46.3851 265.885 43.7267 269.158 43.7267H301.985C305.259 43.7267 307.921 46.3851 307.921 49.6529V71.0931C307.921 74.3609 305.259 77.0193 301.985 77.0193Z" fill="#EB455F"/>
<path d="M291.957 48.331H280.605V51.1644H291.957V48.331Z" fill="#3F3D56"/>
<path d="M272.445 63.2064V57.5396H263.222V63.2064H272.445Z" fill="#3F3D56"/>
<path d="M307.921 63.2064V57.5396H298.698V63.2064H307.921Z" fill="#3F3D56"/>
<path d="M35.6931 138.305L30.2128 106.389C27.7777 92.2075 38.2914 79.0841 52.6845 78.3398L130.811 74.3001L149.457 43.6197C151.929 39.5523 156.348 37.0685 161.113 37.0685H217.249C221.662 37.0685 225.39 40.3353 225.963 44.7034L227.389 69.2525L367.342 69.6708L384.947 127.596L368.606 126.801L369.444 144.371L348.074 145.208L340.95 125.097C339.608 121.311 333.73 117.041 327.621 113.469C313.924 105.46 296.327 108.031 285.962 120.032C283.517 122.863 281.808 125.813 281.33 128.579L278.097 147.299L121.383 144.789L100.844 116.106C94.776 109.513 66.1309 107.092 63.5512 116.106L48.0542 138.933L35.6931 138.305Z" fill="url(#paint0_linear_61_1007)"/>
<path d="M206.024 55.7371L210.635 77.4376L151.972 78.6926L164.361 52.1347C165.485 49.7254 167.953 48.2296 170.612 48.345L198.723 49.5652C202.282 49.7197 205.285 52.2584 206.024 55.7371Z" fill="white" fill-opacity="0.55"/>
<path d="M144.01 77.0193L155.743 46.8993L152.671 43.8326L133.535 72.836L137.423 78.6926L144.01 77.0193Z" fill="white" fill-opacity="0.55"/>
<path d="M312.038 174.909C327.311 174.909 339.693 162.548 339.693 147.299C339.693 132.051 327.311 119.689 312.038 119.689C296.764 119.689 284.382 132.051 284.382 147.299C284.382 162.548 296.764 174.909 312.038 174.909Z" fill="#3F3D56"/>
<path d="M292.972 147.299C292.972 136.804 301.525 128.265 312.038 128.265C322.551 128.265 331.103 136.804 331.103 147.299C331.103 157.795 322.551 166.333 312.038 166.333C301.525 166.333 292.972 157.795 292.972 147.299ZM293.391 147.299C293.391 157.564 301.756 165.915 312.038 165.915C322.32 165.915 330.684 157.564 330.684 147.299C330.684 137.034 322.32 128.683 312.038 128.683C301.756 128.683 293.391 137.034 293.391 147.299Z" fill="white"/>
<path d="M295.696 147.299C295.696 156.31 303.012 163.614 312.038 163.614C321.063 163.614 328.38 156.31 328.38 147.299C328.38 138.289 321.063 130.984 312.038 130.984C303.012 130.984 295.696 138.289 295.696 147.299ZM322.661 143.392L319.765 145.276L318.653 143.572L322.661 143.392ZM318.252 152.974L319.024 151.091L321.451 154.28L318.252 152.974ZM310.838 159.431L312.876 155.98V159.431H310.838ZM310.838 139.455L312.876 136.004V139.455H310.838ZM301.786 154.28L304.214 151.091L304.985 152.974L301.786 154.28ZM300.577 143.392L304.585 143.572L303.472 145.276L300.577 143.392Z" fill="#E6E6E6"/>
<path d="M79.8999 174.909C95.1735 174.909 107.555 162.548 107.555 147.299C107.555 132.051 95.1735 119.689 79.8999 119.689C64.6262 119.689 52.2444 132.051 52.2444 147.299C52.2444 162.548 64.6262 174.909 79.8999 174.909Z" fill="#3F3D56"/>
<path d="M60.8344 147.299C60.8344 136.804 69.3871 128.265 79.8999 128.265C90.4126 128.265 98.9653 136.804 98.9653 147.299C98.9653 157.795 90.4126 166.333 79.8999 166.333C69.3871 166.333 60.8344 157.795 60.8344 147.299ZM61.2534 147.299C61.2534 157.564 69.6181 165.915 79.8999 165.915C90.1816 165.915 98.5463 157.564 98.5463 147.299C98.5463 137.034 90.1816 128.683 79.8999 128.683C69.6181 128.683 61.2534 137.034 61.2534 147.299Z" fill="white"/>
<path d="M63.558 147.299C63.558 156.31 70.8745 163.614 79.8999 163.614C88.9252 163.614 96.2417 156.31 96.2417 147.299C96.2417 138.289 88.9252 130.984 79.8999 130.984C70.8745 130.984 63.558 138.289 63.558 147.299ZM90.5226 143.392L87.6272 145.276L86.5148 143.572L90.5226 143.392ZM86.1146 152.974L86.8857 151.091L89.3136 154.28L86.1146 152.974ZM78.7006 159.431L80.7379 155.98V159.431H78.7006ZM78.7006 139.455L80.7379 136.004V139.455H78.7006ZM69.6481 154.28L72.076 151.091L72.8471 152.974L69.6481 154.28ZM68.4391 143.392L72.447 143.572L71.3345 145.276L68.4391 143.392Z" fill="#E6E6E6"/>
<path d="M195.34 88.5234H211.263V85.1768H195.34V88.5234Z" fill="#3F3D56"/>
<path d="M419.771 154.22C419.622 153.767 418.497 153.966 418.389 153.561C418.282 153.157 419.361 152.818 420.189 151.679C420.338 151.474 421.279 150.18 420.918 149.635C420.234 148.604 415.476 151.173 414.334 149.731C414.083 149.415 413.98 148.872 413.233 147.861C412.936 147.458 412.745 147.264 412.518 147.27C412.195 147.278 412.079 147.682 411.571 148.413C410.81 149.509 410.535 149.371 410.033 150.27C409.661 150.936 409.616 151.363 409.348 151.388C408.968 151.423 408.811 150.593 408.346 150.561C407.872 150.528 407.398 151.348 407.163 151.989C406.722 153.192 406.995 154.111 407.056 155.027C407.121 156.023 406.967 157.481 405.883 159.351L395.663 175.608C397.858 172.294 404.088 163.257 406.599 159.942C407.323 158.985 408.102 158.024 409.301 157.843C410.455 157.669 411.859 158.239 413.819 158.206C414.048 158.202 414.685 158.183 414.84 157.846C414.968 157.568 414.65 157.325 414.765 157.063C414.921 156.712 415.619 156.863 416.57 156.629C417.241 156.465 417.697 156.193 418.089 155.959C418.208 155.889 419.968 154.824 419.771 154.22Z" fill="#3D7D6E"/>
<path d="M393.001 158.016C392.735 157.958 392.509 158.567 392.278 158.503C392.049 158.439 392.193 157.812 391.872 157.078C391.815 156.945 391.45 156.111 391.078 156.131C390.374 156.168 390.264 159.241 389.225 159.385C388.998 159.416 388.701 159.31 387.988 159.384C387.705 159.414 387.554 159.451 387.491 159.564C387.402 159.725 387.567 159.898 387.78 160.358C388.099 161.048 387.952 161.142 388.249 161.648C388.47 162.022 388.666 162.167 388.601 162.306C388.509 162.502 388.055 162.34 387.906 162.558C387.753 162.781 388.019 163.25 388.266 163.55C388.73 164.113 389.261 164.245 389.729 164.479C390.238 164.734 390.909 165.23 391.516 166.301L396.56 176C395.564 173.968 392.919 168.308 392.013 166.121C391.752 165.49 391.504 164.831 391.761 164.191C392.009 163.576 392.694 163.052 393.243 162.082C393.307 161.969 393.482 161.651 393.361 161.478C393.261 161.335 393.05 161.421 392.954 161.289C392.827 161.111 393.102 160.813 393.262 160.279C393.375 159.903 393.373 159.601 393.371 159.341C393.37 159.263 393.355 158.093 393.001 158.016Z" fill="#3D7D6E"/>
<path d="M398.032 160.382L398.191 158.921L398.288 158.829C398.738 158.405 399.019 157.955 399.125 157.492C399.142 157.419 399.155 157.344 399.168 157.269C399.221 156.968 399.286 156.595 399.575 156.207C399.737 155.991 400.166 155.502 400.607 155.673C400.727 155.717 400.807 155.795 400.863 155.876C400.877 155.862 400.891 155.848 400.907 155.833C401.098 155.648 401.231 155.58 401.36 155.515C401.458 155.464 401.561 155.413 401.733 155.275C401.809 155.214 401.87 155.16 401.921 155.114C402.076 154.976 402.274 154.814 402.546 154.878C402.833 154.957 402.932 155.231 402.998 155.412C403.115 155.736 403.151 155.959 403.174 156.106C403.183 156.16 403.193 156.221 403.2 156.241C403.263 156.399 404.054 156.44 404.352 156.458C405.021 156.494 405.6 156.525 405.739 156.983C405.839 157.31 405.631 157.667 405.103 158.071C404.938 158.197 404.773 158.284 404.63 158.349C404.718 158.432 404.789 158.546 404.793 158.7C404.802 159.065 404.428 159.345 403.679 159.533C403.493 159.581 403.242 159.643 402.915 159.628C402.76 159.62 402.625 159.596 402.51 159.574C402.493 159.64 402.461 159.708 402.405 159.773C402.238 159.963 401.969 160.012 401.603 159.904C401.2 159.792 400.881 159.639 400.6 159.505C400.354 159.388 400.142 159.289 399.965 159.261C399.634 159.215 399.326 159.419 398.957 159.69L398.032 160.382Z" fill="#3D7D6E"/>
<path d="M400.671 152.06L399.215 152.277L399.101 152.207C398.576 151.88 398.069 151.722 397.594 151.738C397.518 151.74 397.443 151.746 397.366 151.753C397.061 151.778 396.683 151.81 396.234 151.629C395.983 151.527 395.401 151.238 395.455 150.768C395.468 150.641 395.522 150.544 395.587 150.469C395.57 150.459 395.552 150.449 395.534 150.438C395.306 150.301 395.206 150.189 395.11 150.081C395.037 149.999 394.961 149.913 394.783 149.781C394.705 149.724 394.637 149.679 394.58 149.641C394.407 149.526 394.2 149.376 394.193 149.098C394.196 148.8 394.437 148.635 394.596 148.525C394.88 148.33 395.087 148.239 395.224 148.179C395.274 148.157 395.33 148.132 395.347 148.119C395.485 148.018 395.324 147.244 395.265 146.952C395.13 146.297 395.014 145.73 395.422 145.48C395.713 145.3 396.112 145.411 396.638 145.818C396.802 145.945 396.928 146.082 397.027 146.204C397.085 146.098 397.177 146.001 397.326 145.958C397.677 145.856 398.043 146.147 398.416 146.822C398.509 146.99 398.633 147.216 398.701 147.536C398.733 147.687 398.744 147.824 398.752 147.941C398.82 147.941 398.894 147.954 398.971 147.992C399.198 148.105 399.313 148.353 399.302 148.733C399.295 149.151 399.228 149.497 399.17 149.803C399.119 150.07 399.076 150.3 399.094 150.478C399.133 150.809 399.409 151.055 399.765 151.343L400.671 152.06Z" fill="#3D7D6E"/>
<path d="M400.867 147.695L401.025 146.234L401.123 146.142C401.572 145.717 401.854 145.268 401.959 144.805C401.976 144.731 401.989 144.657 402.003 144.581C402.055 144.281 402.121 143.907 402.41 143.519C402.572 143.303 403 142.815 403.442 142.985C403.561 143.03 403.642 143.107 403.697 143.189C403.712 143.175 403.726 143.161 403.741 143.145C403.932 142.96 404.066 142.892 404.194 142.827C404.293 142.777 404.395 142.725 404.568 142.587C404.643 142.527 404.704 142.472 404.755 142.426C404.91 142.288 405.108 142.127 405.38 142.191C405.668 142.269 405.767 142.543 405.832 142.725C405.949 143.049 405.985 143.271 406.009 143.419C406.017 143.473 406.027 143.534 406.035 143.553C406.098 143.712 406.889 143.753 407.187 143.77C407.856 143.806 408.434 143.838 408.574 144.295C408.674 144.622 408.465 144.979 407.937 145.384C407.772 145.51 407.608 145.597 407.465 145.661C407.553 145.745 407.623 145.858 407.627 146.012C407.637 146.377 407.262 146.657 406.513 146.846C406.327 146.893 406.077 146.956 405.749 146.94C405.595 146.932 405.46 146.909 405.344 146.887C405.327 146.952 405.296 147.02 405.239 147.085C405.072 147.276 404.803 147.324 404.438 147.217C404.034 147.104 403.716 146.952 403.434 146.818C403.189 146.701 402.977 146.601 402.799 146.574C402.468 146.527 402.16 146.731 401.791 147.002L400.867 147.695Z" fill="#3D7D6E"/>
<path d="M396.146 175.692L395.888 175.438L395.531 175.4C395.532 175.366 395.53 175.288 395.527 175.165C395.514 174.493 395.471 172.447 395.756 169.304C395.956 167.11 396.288 164.882 396.746 162.683C397.204 160.48 397.68 158.841 398.061 157.523C398.35 156.529 398.641 155.587 398.925 154.669C399.682 152.216 400.398 149.899 400.841 147.256C400.94 146.666 401.146 145.438 400.725 143.989C400.48 143.148 400.061 142.357 399.479 141.638L400.042 141.183C400.685 141.978 401.148 142.854 401.419 143.788C401.887 145.395 401.663 146.733 401.555 147.376C401.104 150.066 400.381 152.405 399.616 154.881C399.333 155.796 399.043 156.734 398.756 157.724C398.378 159.029 397.907 160.654 397.454 162.829C397.002 165.002 396.673 167.202 396.476 169.369C396.195 172.473 396.237 174.488 396.251 175.15C396.258 175.503 396.26 175.578 396.146 175.692Z" fill="#3D7D6E"/>
<path d="M397.934 142.469C397.905 142.463 397.876 142.455 397.847 142.447C397.253 142.281 396.776 141.797 396.43 141.011C396.268 140.641 396.23 140.251 396.154 139.475C396.142 139.355 396.089 138.75 396.154 137.947C396.196 137.422 396.253 137.211 396.396 137.046C396.554 136.862 396.768 136.756 396.994 136.703C397.001 136.634 397.023 136.566 397.069 136.501C397.254 136.234 397.566 136.344 397.735 136.401C397.82 136.432 397.926 136.471 398.045 136.491C398.233 136.523 398.345 136.49 398.514 136.441C398.676 136.394 398.878 136.336 399.156 136.341C399.706 136.348 400.113 136.595 400.247 136.676C400.954 137.1 401.198 137.777 401.481 138.56C401.537 138.717 401.723 139.284 401.766 140.015C401.798 140.542 401.729 140.758 401.649 140.913C401.487 141.23 401.239 141.377 400.623 141.686C399.98 142.011 399.657 142.173 399.392 142.256C398.776 142.449 398.389 142.57 397.934 142.469Z" fill="#3D7D6E"/>
<path d="M0 175.064C0 175.34 0.387712 175.562 0.870521 175.562H416.444C416.926 175.562 417.314 175.34 417.314 175.064C417.314 174.788 416.926 174.566 416.444 174.566H0.870521C0.387712 174.566 0 174.788 0 175.064Z" fill="#CCCCCC"/>
<path d="M211.162 171.921L216.98 171.92L219.747 149.516L211.161 149.517L211.162 171.921Z" fill="#FFB6B6"/>
<path d="M231.095 171.789C231.276 172.094 231.372 173.077 231.372 173.431C231.372 174.52 230.488 175.402 229.397 175.402L211.379 175.402C210.635 175.402 210.032 174.8 210.032 174.057V173.309C210.032 173.309 209.141 171.058 210.976 168.283C210.976 168.283 213.257 170.456 216.665 167.053L217.67 165.236L224.944 170.547L228.977 171.043C229.859 171.151 230.641 171.026 231.095 171.789Z" fill="#2F2E41"/>
<path d="M185.022 171.921L190.84 171.92L193.608 149.516L185.021 149.517L185.022 171.921Z" fill="#FFB6B6"/>
<path d="M204.955 171.789C205.136 172.094 205.232 173.077 205.232 173.431C205.232 174.52 204.348 175.402 203.257 175.402L185.24 175.402C184.496 175.402 183.893 174.8 183.893 174.057V173.309C183.893 173.309 183.001 171.058 184.836 168.283C184.836 168.283 187.117 170.456 190.525 167.053L191.53 165.236L198.805 170.547L202.837 171.043C203.719 171.151 204.501 171.026 204.955 171.789Z" fill="#2F2E41"/>
<path d="M210.24 18.9403L211.345 29.2319L198.459 28.1292L200.668 18.5727L210.24 18.9403Z" fill="#FFB6B6"/>
<path opacity="0.1" d="M210.24 18.9403L211.345 29.2319L198.459 28.1292L200.668 18.5727L210.24 18.9403Z" fill="black"/>
<path d="M205.638 20.2267C210.315 20.2267 214.106 16.4418 214.106 11.7728C214.106 7.10389 210.315 3.31897 205.638 3.31897C200.962 3.31897 197.171 7.10389 197.171 11.7728C197.171 16.4418 200.962 20.2267 205.638 20.2267Z" fill="#FFB6B6"/>
<path d="M211.161 25.005L225.335 33.275L220.691 55.6961L223.862 85.836L221.653 159.715L208.031 158.245L206.191 95.3925L195.514 160.45H182.286L184.469 90.2467L191.096 60.4744L187.046 28.1292L199.38 24.2698L211.161 25.005Z" fill="#F9801D"/>
<path d="M211.713 14.162C211.713 14.162 212.449 11.5891 214.106 11.7728C215.763 11.9566 216.131 10.4864 215.763 9.75127C215.395 9.01616 214.658 5.34056 214.658 5.34056C214.658 5.34056 215.027 2.76765 212.818 2.40009C210.609 2.03253 209.872 1.66497 209.504 0.929859C209.136 0.19474 203.613 -0.540376 201.773 0.562299C199.932 1.66497 198.459 3.78061 197.171 4.37681C195.882 4.97301 194.778 6.07568 195.514 7.91348C196.25 9.75127 197.318 13.3456 197.318 13.3456C197.318 13.3456 199.195 12.6917 199.564 13.7944C199.932 14.8971 198.459 13.4269 200.3 10.4864C202.141 7.54592 202.141 4.60545 205.086 5.70813C208.031 6.8108 211.345 6.44325 210.977 8.6486C210.609 10.854 211.713 14.162 211.713 14.162Z" fill="#2F2E41"/>
<path d="M218.026 79.2424C216.254 81.1157 215.785 83.547 216.98 84.6727C218.174 85.7984 220.578 85.1923 222.351 83.3181C223.069 82.5791 223.6 81.6792 223.898 80.6935L231.306 72.6617L227.457 69.2714L220.563 77.5492C219.594 77.9033 218.724 78.4839 218.026 79.2424Z" fill="#FFB6B6"/>
<path d="M225.186 33.0912L237.661 54.3104L239.509 63.9974L227.496 79.2199L222.414 72.7619L228.42 63.9974L218.717 46.9298L225.186 33.0912Z" fill="#111111"/>
<path d="M190.111 77.2666V52.2481C190.111 48.4349 193.218 45.3328 197.037 45.3328H235.344C239.163 45.3328 242.271 48.4349 242.271 52.2481V77.2666C242.271 81.0799 239.163 84.182 235.344 84.182H197.037C193.218 84.182 190.111 81.0799 190.111 77.2666Z" fill="#EB455F"/>
<path d="M208.739 61.1235H221.986V57.8172H208.739V61.1235Z" fill="#3F3D56"/>
<path d="M220.901 83.9603V77.3477H210.137V83.9603H220.901Z" fill="#3F3D56"/>
<path d="M221.406 52.167V45.5544H210.643V52.167H221.406Z" fill="#3F3D56"/>
<path d="M193.987 74.4642C195.759 76.3374 196.228 78.7687 195.033 79.8945C193.839 81.0202 191.435 80.414 189.662 78.5398C188.944 77.8009 188.413 76.9009 188.115 75.9152L180.707 67.8835L184.556 64.4931L191.45 72.771C192.419 73.125 193.289 73.7056 193.987 74.4642Z" fill="#FFB6B6"/>
<path d="M186.827 28.313L174.352 49.5322L172.504 59.2192L184.517 74.4416L189.599 67.9836L183.593 59.2192L193.296 42.1516L186.827 28.313Z" fill="#111111"/>
<path d="M31.7055 129.492C37.9539 129.492 43.0191 125.091 43.0191 119.662C43.0191 114.232 37.9539 109.831 31.7055 109.831C25.4572 109.831 20.392 114.232 20.392 119.662C20.392 125.091 25.4572 129.492 31.7055 129.492Z" fill="#E6E6E6"/>
</g>
<defs>
<linearGradient id="paint0_linear_61_1007" x1="167.248" y1="37.0685" x2="247.389" y2="147.425" gradientUnits="userSpaceOnUse">
<stop stop-color="#393939"/>
<stop offset="1" stop-color="#4E4E4E"/>
</linearGradient>
<clipPath id="clip0_61_1007">
<rect width="421" height="176" fill="white"/>
</clipPath>
</defs>
</svg>
