<svg width="16" height="16" viewBox="0 0 16 16" fill="none" xmlns="http://www.w3.org/2000/svg">
<path d="M14.9908 7.81016C14.9703 7.76387 14.474 6.66289 13.3707 5.55957C11.9006 4.08945 10.0437 3.3125 7.99999 3.3125C5.95624 3.3125 4.09941 4.08945 2.62929 5.55957C1.52597 6.66289 1.02734 7.76562 1.00917 7.81016C0.982522 7.8701 0.96875 7.93498 0.96875 8.00059C0.96875 8.06619 0.982522 8.13107 1.00917 8.19102C1.02968 8.2373 1.52597 9.3377 2.62929 10.441C4.09941 11.9105 5.95624 12.6875 7.99999 12.6875C10.0437 12.6875 11.9006 11.9105 13.3707 10.441C14.474 9.3377 14.9703 8.2373 14.9908 8.19102C15.0175 8.13107 15.0312 8.06619 15.0312 8.00059C15.0312 7.93498 15.0175 7.8701 14.9908 7.81016ZM7.99999 11.75C6.19648 11.75 4.62089 11.0943 3.3166 9.80176C2.78143 9.26955 2.32612 8.66267 1.96484 8C2.32602 7.33727 2.78134 6.73038 3.3166 6.19824C4.62089 4.90566 6.19648 4.25 7.99999 4.25C9.80351 4.25 11.3791 4.90566 12.6834 6.19824C13.2196 6.73025 13.6759 7.33714 14.0381 8C13.6156 8.78867 11.7752 11.75 7.99999 11.75ZM7.99999 5.1875C7.44373 5.1875 6.89997 5.35245 6.43745 5.66149C5.97494 5.97053 5.61445 6.40979 5.40158 6.9237C5.18871 7.43762 5.13301 8.00312 5.24154 8.54869C5.35006 9.09426 5.61792 9.5954 6.01126 9.98874C6.40459 10.3821 6.90573 10.6499 7.4513 10.7585C7.99687 10.867 8.56237 10.8113 9.07629 10.5984C9.59021 10.3855 10.0295 10.0251 10.3385 9.56254C10.6475 9.10003 10.8125 8.55626 10.8125 8C10.8117 7.25432 10.5152 6.5394 9.98788 6.01212C9.4606 5.48484 8.74568 5.18828 7.99999 5.1875ZM7.99999 9.875C7.62915 9.875 7.26664 9.76503 6.9583 9.55901C6.64996 9.35298 6.40963 9.06014 6.26772 8.71753C6.12581 8.37492 6.08867 7.99792 6.16102 7.63421C6.23337 7.27049 6.41195 6.9364 6.67417 6.67417C6.93639 6.41195 7.27049 6.23337 7.6342 6.16103C7.99791 6.08868 8.37491 6.12581 8.71753 6.26773C9.06014 6.40964 9.35297 6.64996 9.559 6.95831C9.76503 7.26665 9.87499 7.62916 9.87499 8C9.87499 8.49728 9.67745 8.9742 9.32582 9.32583C8.97419 9.67746 8.49728 9.875 7.99999 9.875Z" fill="#696969"/>
</svg>
