<svg width="16" height="16" viewBox="0 0 16 16" fill="none" xmlns="http://www.w3.org/2000/svg">
<path d="M13.625 4.25V2.69074C13.625 2.32623 13.1943 2.13282 12.9219 2.37499C12.5209 2.73143 11.9166 2.73143 11.5156 2.37499C11.1146 2.01856 10.5104 2.01856 10.1094 2.37499C9.70838 2.73143 9.10412 2.73143 8.70312 2.37499C8.30213 2.01856 7.69787 2.01856 7.29688 2.37499C6.89588 2.73143 6.29162 2.73143 5.89062 2.37499C5.48963 2.01856 4.88537 2.01856 4.48438 2.37499C4.08338 2.73143 3.47912 2.73143 3.07812 2.37499C2.80568 2.13282 2.375 2.32623 2.375 2.69074V9.25M13.625 6.75V13.3094C13.625 13.6739 13.1943 13.8672 12.9219 13.6251C12.5209 13.2687 11.9166 13.2687 11.5156 13.6251C11.1146 13.9816 10.5104 13.9816 10.1094 13.6251C9.70838 13.2687 9.10412 13.2687 8.70312 13.6251C8.30213 13.9816 7.69787 13.9816 7.29688 13.6251C6.89588 13.2687 6.29162 13.2687 5.89062 13.6251C5.48963 13.9816 4.88537 13.9816 4.48438 13.6251C4.08338 13.2687 3.47912 13.2687 3.07812 13.6251C2.80568 13.8672 2.375 13.6739 2.375 13.3094V11.75" stroke="#696969" stroke-linecap="round"/>
<path d="M5.1875 10.1875H7.6875M10.8125 10.1875H9.5625" stroke="black" stroke-linecap="round"/>
<path d="M10.8125 8H8.3125M5.1875 8H6.4375" stroke="black" stroke-linecap="round"/>
<path d="M5.1875 5.8125H10.8125" stroke="black" stroke-linecap="round"/>
</svg>
