<svg width="48" height="48" viewBox="0 0 48 48" fill="none" xmlns="http://www.w3.org/2000/svg">
<rect width="48" height="48" rx="24" fill="#FBECDA"/>
<path d="M18.8906 19.7812C18.8906 21.1363 19.4289 22.4359 20.3871 23.3941C21.3453 24.3523 22.6449 24.8906 24 24.8906C25.3551 24.8906 26.6547 24.3523 27.6129 23.3941C28.5711 22.4359 29.1094 21.1363 29.1094 19.7812C29.1094 18.4262 28.5711 17.1266 27.6129 16.1684C26.6547 15.2102 25.3551 14.6719 24 14.6719C22.6449 14.6719 21.3453 15.2102 20.3871 16.1684C19.4289 17.1266 18.8906 18.4262 18.8906 19.7812Z" stroke="#FBA333" stroke-miterlimit="10" stroke-linecap="square"/>
<path d="M14.625 34.3125C14.625 31.8261 15.6127 29.4415 17.3709 27.6834C19.129 25.9252 21.5136 24.9375 24 24.9375C25.2311 24.9375 26.4502 25.18 27.5877 25.6511C28.7251 26.1223 29.7586 26.8128 30.6291 27.6834C31.4997 28.5539 32.1902 29.5874 32.6614 30.7248C33.1325 31.8623 33.375 33.0814 33.375 34.3125" stroke="#FBA333" stroke-miterlimit="10"/>
<path d="M21.4406 24.9L24 33.4219L19.7438 31.7156L20.5875 30.0094L18.8813 29.1563L19.7438 25.7438L21.4406 24.9Z" stroke="#FBA333" stroke-miterlimit="10" stroke-linecap="square"/>
<path d="M26.5594 24.9L24 33.4219L28.2656 31.7156L27.4125 30.0094L29.1094 29.1563L28.2656 25.7438L26.5594 24.9Z" stroke="#FBA333" stroke-miterlimit="10" stroke-linecap="square"/>
</svg>
