<svg width="49" height="48" viewBox="0 0 49 48" fill="none" xmlns="http://www.w3.org/2000/svg">
<rect x="0.100037" width="48" height="48" rx="24" fill="#F2DAFB"/>
<path d="M29.8167 18.2833L18.3834 29.7167" stroke="#C03CF1" stroke-linecap="round" stroke-linejoin="round"/>
<path d="M17.5667 19.5083C17.564 21.08 19.2636 22.0652 20.6261 21.2818C21.2607 20.9169 21.6513 20.2403 21.65 19.5083C21.6528 17.9367 19.9531 16.9514 18.5907 17.7348C17.9561 18.0997 17.5654 18.7764 17.5667 19.5083Z" stroke="#C03CF1" stroke-linecap="round" stroke-linejoin="round"/>
<path d="M26.5501 28.4917C26.5473 30.0633 28.247 31.0487 29.6094 30.2652C30.244 29.9003 30.6347 29.2237 30.6334 28.4917C30.6361 26.92 28.9365 25.9348 27.574 26.7182C26.9394 27.0831 26.5488 27.7597 26.5501 28.4917Z" stroke="#C03CF1" stroke-linecap="round" stroke-linejoin="round"/>
</svg>
