<svg width="16" height="16" viewBox="0 0 16 16" fill="none" xmlns="http://www.w3.org/2000/svg">
<path d="M8 5.5V8L9.5625 9.5625" stroke="#696969" stroke-linecap="round" stroke-linejoin="round"/>
<mask id="path-2-inside-1_269_1213" fill="white">
<path d="M3.21116 4.79413L2.74241 4.79649C2.7437 5.05352 2.95176 5.26158 3.2088 5.26288L3.21116 4.79413ZM4.79977 5.27087C5.05865 5.27217 5.26957 5.06336 5.27087 4.80448C5.27217 4.5456 5.06336 4.33468 4.80448 4.33338L4.79977 5.27087ZM3.67191 3.20081C3.6706 2.94192 3.45969 2.73311 3.20081 2.73441C2.94192 2.73572 2.73311 2.94664 2.73442 3.20551L3.67191 3.20081ZM2.84375 8C2.84375 7.74113 2.63388 7.53125 2.375 7.53125C2.11612 7.53125 1.90625 7.74113 1.90625 8H2.84375ZM11.0472 13.2782C11.2713 13.1486 11.3479 12.8619 11.2183 12.6377C11.0886 12.4137 10.8019 12.3371 10.5778 12.4668L11.0472 13.2782ZM12.4668 10.5778C12.3371 10.8019 12.4137 11.0886 12.6377 11.2183C12.8619 11.3479 13.1486 11.2713 13.2782 11.0472L12.4668 10.5778ZM3.71271 3.66954C3.52874 3.85168 3.52726 4.14847 3.70941 4.33244C3.89155 4.51641 4.18834 4.51789 4.37231 4.33574L3.71271 3.66954ZM12.2889 3.71116C9.90131 1.32354 6.04301 1.29936 3.67119 3.67119L4.3341 4.3341C6.33354 2.33466 9.59825 2.34627 11.6261 4.37407L12.2889 3.71116ZM3.67119 3.67119L2.8797 4.46268L3.54261 5.12559L4.3341 4.3341L3.67119 3.67119ZM3.2088 5.26288L4.79977 5.27087L4.80448 4.33338L3.21351 4.32539L3.2088 5.26288ZM3.6799 4.79178L3.67191 3.20081L2.73442 3.20551L2.74241 4.79649L3.6799 4.79178ZM8 2.84375C10.8477 2.84375 13.1562 5.15228 13.1562 8H14.0938C14.0938 4.63451 11.3655 1.90625 8 1.90625V2.84375ZM8 13.1562C5.15228 13.1562 2.84375 10.8477 2.84375 8H1.90625C1.90625 11.3655 4.63451 14.0938 8 14.0938V13.1562ZM10.5778 12.4668C9.81987 12.9052 8.93994 13.1562 8 13.1562V14.0938C9.10919 14.0938 10.1504 13.797 11.0472 13.2782L10.5778 12.4668ZM13.1562 8C13.1562 8.93994 12.9052 9.81987 12.4668 10.5778L13.2782 11.0472C13.797 10.1504 14.0938 9.10919 14.0938 8H13.1562ZM4.37231 4.33574C5.30442 3.41287 6.58529 2.84375 8 2.84375V1.90625C6.32839 1.90625 4.81321 2.57994 3.71271 3.66954L4.37231 4.33574Z"/>
</mask>
<path d="M3.21116 4.79413L2.74241 4.79649C2.7437 5.05352 2.95176 5.26158 3.2088 5.26288L3.21116 4.79413ZM4.79977 5.27087C5.05865 5.27217 5.26957 5.06336 5.27087 4.80448C5.27217 4.5456 5.06336 4.33468 4.80448 4.33338L4.79977 5.27087ZM3.67191 3.20081C3.6706 2.94192 3.45969 2.73311 3.20081 2.73441C2.94192 2.73572 2.73311 2.94664 2.73442 3.20551L3.67191 3.20081ZM2.84375 8C2.84375 7.74113 2.63388 7.53125 2.375 7.53125C2.11612 7.53125 1.90625 7.74113 1.90625 8H2.84375ZM11.0472 13.2782C11.2713 13.1486 11.3479 12.8619 11.2183 12.6377C11.0886 12.4137 10.8019 12.3371 10.5778 12.4668L11.0472 13.2782ZM12.4668 10.5778C12.3371 10.8019 12.4137 11.0886 12.6377 11.2183C12.8619 11.3479 13.1486 11.2713 13.2782 11.0472L12.4668 10.5778ZM3.71271 3.66954C3.52874 3.85168 3.52726 4.14847 3.70941 4.33244C3.89155 4.51641 4.18834 4.51789 4.37231 4.33574L3.71271 3.66954ZM12.2889 3.71116C9.90131 1.32354 6.04301 1.29936 3.67119 3.67119L4.3341 4.3341C6.33354 2.33466 9.59825 2.34627 11.6261 4.37407L12.2889 3.71116ZM3.67119 3.67119L2.8797 4.46268L3.54261 5.12559L4.3341 4.3341L3.67119 3.67119ZM3.2088 5.26288L4.79977 5.27087L4.80448 4.33338L3.21351 4.32539L3.2088 5.26288ZM3.6799 4.79178L3.67191 3.20081L2.73442 3.20551L2.74241 4.79649L3.6799 4.79178ZM8 2.84375C10.8477 2.84375 13.1562 5.15228 13.1562 8H14.0938C14.0938 4.63451 11.3655 1.90625 8 1.90625V2.84375ZM8 13.1562C5.15228 13.1562 2.84375 10.8477 2.84375 8H1.90625C1.90625 11.3655 4.63451 14.0938 8 14.0938V13.1562ZM10.5778 12.4668C9.81987 12.9052 8.93994 13.1562 8 13.1562V14.0938C9.10919 14.0938 10.1504 13.797 11.0472 13.2782L10.5778 12.4668ZM13.1562 8C13.1562 8.93994 12.9052 9.81987 12.4668 10.5778L13.2782 11.0472C13.797 10.1504 14.0938 9.10919 14.0938 8H13.1562ZM4.37231 4.33574C5.30442 3.41287 6.58529 2.84375 8 2.84375V1.90625C6.32839 1.90625 4.81321 2.57994 3.71271 3.66954L4.37231 4.33574Z" fill="black"/>
<path d="M4.00264 4.00264L4.3562 3.64909L4.02474 3.31763L3.67119 3.67119L3.31763 4.02474L3.64909 4.3562L4.00264 4.00264ZM4.80448 4.33338L4.30449 4.33087L4.29978 5.26836L4.79977 5.27087L5.29976 5.27338L5.30447 4.33589L4.80448 4.33338ZM2.73442 3.20551L2.73693 3.70551L3.67442 3.7008L3.67191 3.20081L3.6694 2.70081L2.73191 2.70552L2.73442 3.20551ZM1.90625 8V8.5H2.84375V8V7.5H1.90625V8ZM10.5778 12.4668L10.145 12.7171L10.6144 13.5286L11.0472 13.2782L11.48 13.0279L11.0106 12.2164L10.5778 12.4668ZM13.2782 11.0472L13.5286 10.6144L12.7171 10.145L12.4668 10.5778L12.2164 11.0106L13.0279 11.48L13.2782 11.0472ZM4.37231 4.33574L4.72762 3.98396L4.06802 3.31775L3.71271 3.66954L3.3574 4.02132L4.017 4.68753L4.37231 4.33574ZM3.67119 3.67119L3.31763 4.02474L3.98055 4.68765L4.3341 4.3341L4.68765 3.98055L4.02474 3.31763L3.67119 3.67119ZM13.1562 8V8.5H14.0938V8V7.5H13.1562V8ZM8 1.90625H7.5V2.84375H8H8.5V1.90625H8ZM8 14.0938H8.5V13.1562H8H7.5V14.0938H8ZM3.67119 3.67119L2.96408 2.96408V2.96408L3.67119 3.67119ZM3.21116 4.79413L4.21114 4.79916L4.21622 3.78907L3.20613 3.79414L3.21116 4.79413ZM3.2088 5.26288L3.20377 6.26286L3.20378 6.26286L3.2088 5.26288ZM4.79977 5.27087L4.79474 6.27086H4.79475L4.79977 5.27087ZM4.80448 4.33338L4.79946 5.33337H4.79946L4.80448 4.33338ZM3.67191 3.20081L4.67189 3.19578V3.19576L3.67191 3.20081ZM3.20081 2.73441L3.19578 1.73443L3.19576 1.73443L3.20081 2.73441ZM2.73442 3.20551L3.73441 3.20049L3.73441 3.20047L2.73442 3.20551ZM11.0472 13.2782L10.5465 12.4126L10.5465 12.4126L11.0472 13.2782ZM11.2183 12.6377L12.0839 12.1371L12.0838 12.137L11.2183 12.6377ZM10.5778 12.4668L11.0785 13.3324L11.0788 13.3322L10.5778 12.4668ZM12.4668 10.5778L13.3322 11.0788L13.3324 11.0785L12.4668 10.5778ZM12.6377 11.2183L12.137 12.0838L12.1371 12.0839L12.6377 11.2183ZM13.2782 11.0472L12.4126 10.5465L12.4126 10.5465L13.2782 11.0472ZM3.71271 3.66954L4.41628 4.38016L4.41628 4.38016L3.71271 3.66954ZM3.70941 4.33244L4.42003 3.62887L4.42002 3.62886L3.70941 4.33244ZM4.37231 4.33574L5.07588 5.04637L5.07588 5.04636L4.37231 4.33574ZM12.2889 3.71116L12.9961 4.41825L13.7031 3.71114L12.996 3.00406L12.2889 3.71116ZM4.3341 4.3341L5.04121 5.04121L5.04121 5.04121L4.3341 4.3341ZM11.6261 4.37407L10.919 5.08118L11.6261 5.78831L12.3332 5.08116L11.6261 4.37407ZM2.8797 4.46268L2.17259 3.75557L1.46549 4.46268L2.17259 5.16978L2.8797 4.46268ZM3.54261 5.12559L2.83551 5.83269L3.54261 6.5398L4.24972 5.83269L3.54261 5.12559ZM3.21351 4.32539L3.21854 3.3254L2.21855 3.32038L2.21353 4.32036L3.21351 4.32539ZM3.6799 4.79178L3.68493 5.79176L4.68491 5.78674L4.67989 4.78675L3.6799 4.79178ZM3.21116 4.79413L3.20613 3.79414L2.73739 3.7965L2.74241 4.79649L2.74744 5.79647L3.21618 5.79412L3.21116 4.79413ZM2.74241 4.79649L1.74243 4.8015C1.74646 5.60692 2.39839 6.25881 3.20377 6.26286L3.2088 5.26288L3.21383 4.26289C3.50513 4.26435 3.74094 4.50013 3.7424 4.79148L2.74241 4.79649ZM3.2088 5.26288L4.20879 5.2679L4.21114 4.79916L3.21116 4.79413L2.21117 4.7891L2.20881 5.25785L3.2088 5.26288ZM4.79977 5.27087L4.79475 6.27086C5.60589 6.27493 6.26678 5.62067 6.27086 4.8095L5.27087 4.80448L4.27088 4.79946C4.27235 4.50605 4.51141 4.26941 4.80479 4.27088L4.79977 5.27087ZM5.27087 4.80448L6.27086 4.8095C6.27493 3.99836 5.62067 3.33747 4.8095 3.33339L4.80448 4.33338L4.79946 5.33337C4.50605 5.3319 4.26941 5.09284 4.27088 4.79946L5.27087 4.80448ZM3.67191 3.20081L4.67189 3.19576C4.6678 2.38465 4.00697 1.73035 3.19578 1.73443L3.20081 2.73441L3.20583 3.7344C2.91241 3.73587 2.6734 3.4992 2.67192 3.20585L3.67191 3.20081ZM3.20081 2.73441L3.19576 1.73443C2.38464 1.73852 1.73034 2.39937 1.73443 3.21056L2.73442 3.20551L3.73441 3.20047C3.73589 3.49391 3.49921 3.73292 3.20585 3.7344L3.20081 2.73441ZM2.84375 8H3.84375C3.84375 7.18885 3.18617 6.53125 2.375 6.53125V7.53125V8.53125C2.08159 8.53125 1.84375 8.2934 1.84375 8H2.84375ZM2.375 7.53125V6.53125C1.56383 6.53125 0.90625 7.18885 0.90625 8H1.90625H2.90625C2.90625 8.2934 2.66841 8.53125 2.375 8.53125V7.53125ZM11.0472 13.2782L11.5478 14.1439C12.2502 13.7377 12.49 12.8392 12.0839 12.1371L11.2183 12.6377L10.3526 13.1384C10.2058 12.8846 10.2924 12.5596 10.5465 12.4126L11.0472 13.2782ZM11.2183 12.6377L12.0838 12.137C11.6778 11.4351 10.7793 11.1947 10.0769 11.6013L10.5778 12.4668L11.0788 13.3322C10.8245 13.4794 10.4995 13.3923 10.3527 13.1385L11.2183 12.6377ZM12.4668 10.5778L11.6013 10.0769C11.1947 10.7793 11.4351 11.6778 12.137 12.0838L12.6377 11.2183L13.1385 10.3527C13.3923 10.4995 13.4794 10.8245 13.3322 11.0788L12.4668 10.5778ZM12.6377 11.2183L12.1371 12.0839C12.8392 12.49 13.7377 12.2502 14.1439 11.5478L13.2782 11.0472L12.4126 10.5465C12.5596 10.2924 12.8846 10.2058 13.1384 10.3526L12.6377 11.2183ZM3.71271 3.66954L3.00913 2.95891C2.4327 3.52963 2.42805 4.45959 2.9988 5.03603L3.70941 4.33244L4.42002 3.62886C4.62646 3.83736 4.62477 4.17373 4.41628 4.38016L3.71271 3.66954ZM3.70941 4.33244L2.99878 5.03602C3.56951 5.61246 4.49946 5.61707 5.07588 5.04637L4.37231 4.33574L3.66873 3.62512C3.87722 3.4187 4.21359 3.42036 4.42003 3.62887L3.70941 4.33244ZM12.2889 3.71116L12.996 3.00406C10.2248 0.23278 5.73327 0.194893 2.96408 2.96408L3.67119 3.67119L4.37829 4.37829C6.35276 2.40383 9.57786 2.4143 11.5818 4.41827L12.2889 3.71116ZM4.3341 4.3341L5.04121 5.04121C6.64362 3.43879 9.27514 3.43737 10.919 5.08118L11.6261 4.37407L12.3332 3.66697C9.92136 1.25518 6.02346 1.23052 3.62699 3.62699L4.3341 4.3341ZM11.6261 4.37407L12.3332 5.08116L12.9961 4.41825L12.2889 3.71116L11.5818 3.00408L10.9189 3.66699L11.6261 4.37407ZM3.67119 3.67119L2.96408 2.96408L2.17259 3.75557L2.8797 4.46268L3.58681 5.16978L4.37829 4.37829L3.67119 3.67119ZM2.8797 4.46268L2.17259 5.16978L2.83551 5.83269L3.54261 5.12559L4.24972 4.41848L3.58681 3.75557L2.8797 4.46268ZM3.54261 5.12559L4.24972 5.83269L5.04121 5.04121L4.3341 4.3341L3.62699 3.62699L2.83551 4.41848L3.54261 5.12559ZM3.2088 5.26288L3.20378 6.26286L4.79474 6.27086L4.79977 5.27087L4.80479 4.27088L3.21382 4.26289L3.2088 5.26288ZM4.80448 4.33338L4.80951 3.33339L3.21854 3.3254L3.21351 4.32539L3.20849 5.32537L4.79946 5.33337L4.80448 4.33338ZM3.21351 4.32539L2.21353 4.32036L2.20881 5.25785L3.2088 5.26288L4.20879 5.2679L4.2135 4.33041L3.21351 4.32539ZM3.6799 4.79178L4.67989 4.78675L4.67189 3.19578L3.67191 3.20081L2.67192 3.20583L2.67991 4.7968L3.6799 4.79178ZM2.73442 3.20551L1.73443 3.21054L1.74243 4.80151L2.74241 4.79649L3.7424 4.79146L3.73441 3.20049L2.73442 3.20551ZM2.74241 4.79649L2.74744 5.79647L3.68493 5.79176L3.6799 4.79178L3.67487 3.79179L2.73739 3.7965L2.74241 4.79649ZM8 2.84375V3.84375C10.2954 3.84375 12.1562 5.70457 12.1562 8H13.1562H14.1562C14.1562 4.59999 11.4 1.84375 8 1.84375V2.84375ZM14.0938 8H15.0938C15.0938 4.08223 11.9178 0.90625 8 0.90625V1.90625V2.90625C10.8132 2.90625 13.0938 5.1868 13.0938 8H14.0938ZM8 13.1562V12.1562C5.70457 12.1562 3.84375 10.2954 3.84375 8H2.84375H1.84375C1.84375 11.4 4.59999 14.1562 8 14.1562V13.1562ZM1.90625 8H0.90625C0.90625 11.9178 4.08223 15.0938 8 15.0938V14.0938V13.0938C5.1868 13.0938 2.90625 10.8132 2.90625 8H1.90625ZM10.5778 12.4668L10.0771 11.6011C9.46729 11.9539 8.75949 12.1562 8 12.1562V13.1562V14.1562C9.12039 14.1562 10.1725 13.8565 11.0785 13.3324L10.5778 12.4668ZM8 14.0938V15.0938C9.28967 15.0938 10.5031 14.7483 11.5479 14.1439L11.0472 13.2782L10.5465 12.4126C9.79781 12.8457 8.9287 13.0938 8 13.0938V14.0938ZM13.1562 8H12.1562C12.1562 8.75949 11.9539 9.46729 11.6011 10.0771L12.4668 10.5778L13.3324 11.0785C13.8565 10.1725 14.1562 9.12039 14.1562 8H13.1562ZM13.2782 11.0472L14.1439 11.5479C14.7483 10.5031 15.0938 9.28967 15.0938 8H14.0938H13.0938C13.0938 8.9287 12.8457 9.79781 12.4126 10.5465L13.2782 11.0472ZM4.37231 4.33574L5.07588 5.04636C5.82834 4.30137 6.85926 3.84375 8 3.84375V2.84375V1.84375C6.31132 1.84375 4.7805 2.52437 3.66873 3.62512L4.37231 4.33574ZM8 1.90625V0.90625C6.05431 0.90625 4.28921 1.69152 3.00913 2.95892L3.71271 3.66954L4.41628 4.38016C5.3372 3.46837 6.60247 2.90625 8 2.90625V1.90625Z" fill="#696969" mask="url(#path-2-inside-1_269_1213)"/>
</svg>
