<svg fill="#000000" width="64px" height="64px" viewBox="0 0 24.00 24.00" id="vision-focus" data-name="Flat Color" xmlns="http://www.w3.org/2000/svg" class="icon flat-color" stroke="#000000" stroke-width="0.00024000000000000003"><g id="SVGRepo_bgCarrier" stroke-width="0"></g><g id="SVGRepo_tracerCarrier" stroke-linecap="round" stroke-linejoin="round"></g><g id="SVGRepo_iconCarrier"><path id="primary" d="M21.89,14.55C21.76,14.29,18.54,8,12,8s-9.76,6.29-9.89,6.55a1,1,0,0,0,0,.9C2.24,15.71,5.46,22,12,22s9.76-6.29,9.89-6.55A1,1,0,0,0,21.89,14.55Z" style="fill: #000000;"></path><path id="secondary" d="M11,5V3a1,1,0,0,1,2,0V5a1,1,0,0,1-2,0ZM6.87,4.11a1,1,0,0,0-1.74,1l1,1.73a1,1,0,1,0,1.74-1ZM12,12a3,3,0,1,0,3,3A3,3,0,0,0,12,12Zm6.5-8.26a1,1,0,0,0-1.37.37l-1,1.73a1,1,0,0,0,1.74,1l1-1.73A1,1,0,0,0,18.5,3.74Z" style="fill: #007bff;"></path></g></svg>