<svg width="16" height="16" viewBox="0 0 16 16" fill="none" xmlns="http://www.w3.org/2000/svg">
<path d="M6.125 8C6.125 8.49728 6.32254 8.9742 6.67417 9.32583C7.02581 9.67746 7.50272 9.875 8 9.875C8.49728 9.875 8.9742 9.67746 9.32583 9.32583C9.67746 8.9742 9.875 8.49728 9.875 8C9.875 7.50272 9.67746 7.02581 9.32583 6.67417C8.9742 6.32254 8.49728 6.125 8 6.125C7.50272 6.125 7.02581 6.32254 6.67417 6.67417C6.32254 7.02581 6.125 7.50272 6.125 8Z" fill="#696969" stroke="black"/>
<path d="M2.78826 7.1495C3.0836 7.33506 3.27364 7.65119 3.27364 7.99994C3.27363 8.34875 3.0836 8.66487 2.78826 8.85044C2.58729 8.97669 2.4578 9.07762 2.36567 9.19769C2.16385 9.46075 2.07479 9.79313 2.11806 10.1218C2.15051 10.3683 2.29612 10.6205 2.58733 11.1249C2.87855 11.6293 3.02415 11.8815 3.22141 12.0329C3.48442 12.2347 3.81684 12.3238 4.14552 12.2805C4.29554 12.2608 4.44767 12.1991 4.65747 12.0882C4.9659 11.9252 5.33474 11.9187 5.63684 12.0931C5.93892 12.2676 6.11767 12.5902 6.1307 12.9388C6.13957 13.1759 6.16224 13.3386 6.22015 13.4784C6.34702 13.7846 6.59036 14.028 6.89662 14.1549C7.12637 14.25 7.41756 14.25 8 14.25C8.58244 14.25 8.87362 14.25 9.10337 14.1549C9.40962 14.028 9.653 13.7846 9.77987 13.4784C9.83775 13.3386 9.86044 13.1759 9.86931 12.9388C9.88231 12.5902 10.0611 12.2676 10.3632 12.0931C10.6652 11.9188 11.0341 11.9253 11.3424 12.0883C11.5523 12.1991 11.7044 12.2608 11.8544 12.2806C12.1831 12.3239 12.5156 12.2347 12.7786 12.0329C12.9758 11.8816 13.1214 11.6294 13.4127 11.125C13.5423 10.9004 13.6431 10.7259 13.7179 10.5795M13.2117 8.8505C12.9164 8.66494 12.7264 8.34881 12.7263 8.00006C12.7263 7.65125 12.9164 7.33506 13.2117 7.1495C13.4127 7.02325 13.5421 6.92231 13.6342 6.80225C13.8361 6.53924 13.9251 6.20683 13.8819 5.87814C13.8494 5.63163 13.7038 5.37943 13.4126 4.87503C13.1214 4.37063 12.9757 4.11844 12.7785 3.96708C12.5155 3.76526 12.1831 3.67619 11.8544 3.71946C11.7044 3.73921 11.5522 3.80087 11.3424 3.91177C11.034 4.07477 10.6652 4.08128 10.3631 3.90685C10.0611 3.73244 9.88231 3.40981 9.86931 3.06127C9.86044 2.82408 9.83775 2.66147 9.77987 2.52164C9.653 2.21536 9.40962 1.97202 9.10337 1.84515C8.87362 1.75 8.58244 1.75 8 1.75C7.41756 1.75 7.12637 1.75 6.89662 1.84515C6.59036 1.97202 6.34702 2.21536 6.22015 2.52164C6.16224 2.66146 6.13957 2.82405 6.1307 3.06121C6.11766 3.40979 5.9389 3.73244 5.63682 3.90685C5.33473 4.08126 4.96592 4.07474 4.65753 3.91175C4.4477 3.80085 4.29556 3.73918 4.14553 3.71942C3.81684 3.67616 3.48443 3.76522 3.22142 3.96704C3.02416 4.11841 2.87855 4.37061 2.58734 4.875C2.45769 5.09956 2.3569 5.27412 2.28211 5.42046" stroke="#696969" stroke-linecap="round"/>
</svg>
